<svg xmlns="http://www.w3.org/2000/svg" width="67" height="320" viewBox="0 0 67 320">
  <g id="Group_778" data-name="Group 778" transform="translate(0 320) rotate(-90)">
    <g id="Group_361" data-name="Group 361" transform="translate(8.286 14.405)">
      <path id="Path_319" data-name="Path 319" d="M46.979,487.279c.129-.038.257-.076.384-.117l-.314-.043a1.839,1.839,0,0,0-.237.124Z" transform="translate(-46.812 -487.119)" fill="#dd1c63"/>
    </g>
    <g id="Group_362" data-name="Group 362" transform="translate(1.853 16.455)">
      <path id="Path_320" data-name="Path 320" d="M44.465,488a4.375,4.375,0,0,0-1.445-.206c-.146.068-.221.1-.259.119.225.068.529.162.834.253C44.193,488.35,44.5,488.211,44.465,488Z" transform="translate(-42.761 -487.793)" fill="#dd1c63"/>
    </g>
    <g id="Group_363" data-name="Group 363" transform="translate(1.505 16.417)">
      <path id="Path_321" data-name="Path 321" d="M42.89,487.909l-.348-.106c.079.049.157.094.232.138.067-.01.07-.011.07-.011Z" transform="translate(-42.542 -487.803)" fill="#dd1c63"/>
    </g>
    <g id="Group_364" data-name="Group 364" transform="translate(210.734 5.904)">
      <path id="Path_322" data-name="Path 322" d="M115.323,486.285c8.143.313,16.321.522,24.494.677.275.006.5-.06.518-.154s-.2-.164-.453-.162c-8.178-.167-16.315-.381-24.456-.694-.273,0-.5.064-.537.149C114.875,486.2,115.067,486.273,115.323,486.285Z" transform="translate(-114.889 -485.952)" fill="#dd1c63"/>
    </g>
    <g id="Group_365" data-name="Group 365" transform="translate(313.814 28.438)">
      <path id="Path_323" data-name="Path 323" d="M153.633,491.906c-.194.07-.187.165.014.23a1.228,1.228,0,0,0,.673,0c.162-.06.156-.175-.016-.23A1.234,1.234,0,0,0,153.633,491.906Z" transform="translate(-153.492 -491.858)" fill="#dd1c63"/>
    </g>
    <g id="Group_366" data-name="Group 366">
      <path id="Path_324" data-name="Path 324" d="M344.277,517.942q-14.628-.706-29.386-1.265c.686-.147,1.369-.291,2.06-.433.683-.05,1.366-.112,2.05-.162q9.48-.066,18.98-.312c2.368.032,4.328-.677,4.454-1.6.037-.9-1.721-1.627-4-1.7.371-.056.736-.112,1.106-.162s.638-.218.536-.362a1.432,1.432,0,0,0-.983-.224c-1.335.209-2.644.43-3.958.65-12.04-.341-24.1-.232-36.156-.056,12.976-1.062,26.125-1.792,39.367-2.078-.268.112-.3.3.032.424a1.966,1.966,0,0,0,1.114-.012c.315-.127.263-.321-.026-.424l-.029-.009q10.662-.216,21.39-.032c.418.012.775-.132.767-.306s-.392-.318-.854-.315a641.628,641.628,0,0,0-70.135,2.875c-1.248.018-2.5.041-3.76.056l0-.012a4.955,4.955,0,0,0-2.352-1.813c8.128-.3,16.208-.659,24.318-1.074q10.134.084,20.281.165c.975.012,1.789-.282,1.813-.692.029-.374-.778-.668-1.8-.694-1.658-.026-3.319-.035-4.977-.056,1.366-.48,2.262-1.157,2.352-1.916.095-.733-.594-1.4-1.748-1.916,7.318-.694,14.568-1.462,21.645-2.487.415-.059.639-.218.489-.38a1.3,1.3,0,0,0-.985-.185c-10.29.435-20.449,1.092-30.637,1.607-8.041-.9-15.911-1.875-24.6-2.225-12.661-.483-24.551.462-36.426,1.407q-6.405-.358-12.747-.53c.594-.35.949-.765.949-1.215a.838.838,0,0,0-.095-.335c3.718.059,7.458.1,11.257.15,35.228.4,68.307-2.69,102.005-5.247,2.155-.1,3.713-.859,3.456-1.683s-2.244-1.424-4.391-1.324c-16.161.006-31.055,1.439-47.405,2.857-11.644,1.006-21.874,1.748-33.565,2.448-13.691.809-26.425.63-39.845.609a29.368,29.368,0,0,0-3.976-.171l-4.034.141c-10.5-.118-20.8-.647-31.055-1.209,12.264-.506,24.5-1.1,36.571-2.225.867-.047,1.443-.359,1.353-.677-.155-.324-.935-.553-1.805-.506-16.82.695-33.7.968-50.564,1.309-4.6-2.849-14.335-4.532-23.033-4.632a52.949,52.949,0,0,0-9.192.733c1.4.121,2.767.229,4.168.35a56.632,56.632,0,0,0-11.15,1.6c-.3-.038-.607-.077-.933-.1-8.1-1.577-17.554-1.266-26.3-1.948.187.365.413.727.6,1.089-1.616-.277-2.562-.936-4.333-1.136.5.265.962.533,1.458.8l-.105-.012a23.313,23.313,0,0,0-6.548-.877,83.184,83.184,0,0,0-18.839-3.125,9.665,9.665,0,0,0-3.779-.8,13.5,13.5,0,0,1-1.908-.421,68.648,68.648,0,0,0-15.27-3.905c1.109.338,2.268.674,3.379,1.009a32.347,32.347,0,0,0-5.166-.586c.194.212.447.421.641.633-5.731-1.524-13.591-.977-17.554,1.209s-2.575,5.2,3.159,6.724l.828.235c-2.927.338-5.484,1.054-6.927,2.313-.773.694-.1,1.568.071,2.375-.234,1.168,2.076,2.189,5.143,2.272a13.7,13.7,0,0,0,2.352-.135c3.54.43,7.158.771,10.6,1.295a2.748,2.748,0,0,0,1.868-.256c.3-.268.013-.586-.691-.706-2.481-.544-4.882-1.121-7.274-1.71-.2.068-.4.132-.6.2a1.773,1.773,0,0,1,.321-.271c-.218-.053-.436-.106-.652-.162.168-.05.328-.106.5-.153l.541.085a6.139,6.139,0,0,1,1.048-.4c4.291.406,8.543.856,12.542,1.633.234.05-.158.571.271.762.215.094.436.182.67.271-.72-.115-1.477-.212-2.294-.283-3.072.739-4.233,1.018-5.035,1.21l-.013-.006s-.008,0-.242.068l-1.164.277,0,.047c-.092.026-.192.056-.294.082-.46-.032-.917-.073-1.38-.1a2.216,2.216,0,0,0-1.274.209,5.464,5.464,0,0,0-.615-.391c-2.628-.256-2.628-.256-5.324-.485a.917.917,0,0,0,.092.318,10.4,10.4,0,0,1-2.055.082,23.425,23.425,0,0,1-3.529-.2l1.217.524-1.067-.362.279.594-.491-.65-.457.488s-.008,0-2.115-1.418c-.163.032-.554.1-1.537.288a2.763,2.763,0,0,0-.473.3c-.021.174-.021.174-.862.78a1.033,1.033,0,0,0,.063.415c.258.2.258.2.323.744a4.215,4.215,0,0,0,.715.391c.4.106.51.132,2.013.471a3.619,3.619,0,0,0-.365.292c-.289,1.015-.289,1.015,1.587,3.375a11.545,11.545,0,0,0,2.743,1.109c1.971.224,1.971.224,4.246.459,0,0,.494.088,1.351.2a12.453,12.453,0,0,1,1.248.827l.01.006a5.062,5.062,0,0,0-1.214.2c-1.025.333-1.167.906-.307,1.3-1.13,1.563-.455,2.978.975,4.335A2.145,2.145,0,0,0,54.407,516a8.678,8.678,0,0,0-3.159,4.261l-.2,1.321c.484,1.112,1.889,2.154,3.978,2.954l.633.315-.6,1.089c2.675,2.9,7.967,5.215,11.234,7.981l2.46,1.457a19.451,19.451,0,0,0,7.939,2.454l3.508.418c.738.021,1.472.032,2.215.044-3.734,1.351-5.786,3.34-5.1,5.441,1.177,3.458,9.492,5.915,18.568,5.444,24.223-.135,47.613-.368,72.372-1.807,18.329-1.048,34.955-2.469,52.929-2.463,17.186-1.5,33.743-3.434,50.511-5.75,14.09-1.93,24.872-5.812,37.333-8.763.363-.08.4-.274.205-.412a1.811,1.811,0,0,0-1.119-.065c-19.771,2.572-39.7,4.8-60.886,5.323-2.428.056-4.814.068-7.179.044a5.018,5.018,0,0,0-.857-.1q-3.224-.251-6.462-.459,1.123-.013,2.249-.038c1.49.023,2.764-.415,2.872-1,0-.247-.2-.474-.552-.659,5.508-.621,10.9-1.424,16.271-2.272a21.954,21.954,0,0,0,4.349-.586c6.212.43,12.448.742,18.694,1.136l1.548.171a8.823,8.823,0,0,0,5.011-.915,1.505,1.505,0,0,0,.6-.639c14.227-1.212,28.672-2.116,42.1-4.388.681-.115,1.041-.362.93-.636a1.955,1.955,0,0,0,.888.015,37.221,37.221,0,0,1,5.284-.986c.413-.094.636-.256.444-.394a1.353,1.353,0,0,0-1.033-.171,50.122,50.122,0,0,0-5.558,1.027c-.187.053-.31.135-.342.224a3.293,3.293,0,0,0-1.606-.171c-13.88.765-27.316,2.481-41.33,2.854,6.853-1.045,13.867-1.769,21.243-2.563,8.9-.945,17.091-2.3,26.065-2.837.468,0,.78-.165.731-.324s-.444-.3-.9-.259c-18.386.812-34.5,4.758-53.491,4.761-.746,0-1.493-.021-2.231-.041,5.857-1.377,11.61-2.784,17.343-4.17,17.467-.583,34.863-1.46,52.043-2.749.838-.006,1.516-.28,1.5-.6S345.113,517.933,344.277,517.942Zm-292.33-14.52a2.911,2.911,0,0,1,.688.371S52.633,503.793,51.947,503.422Zm42.3-.709c-3.479-.241-7.014-.415-10.64-.509a26.581,26.581,0,0,0-3.96.177,24.927,24.927,0,0,0-4.877-2.387c3.248.515,6.958.718,10.372,1.068,3.787.391,7.51.75,11.221,1.08-.434.041-.867.071-1.309.112C94.63,502.31,93.8,502.254,94.249,502.713Zm7.757-8.84c.665.318,1.335.639,2.008.956-.095,0-.192-.009-.286-.021-.883-.135-1.768-.265-2.654-.4.16.091.326.18.489.265-3.419-.224-6.827-.456-10.217-.733A123.289,123.289,0,0,0,75.87,492.26c1.542-.353,3.006-.75,4.367-1.183,6.774.936,13.281,2.16,20.376,2.516C101.081,493.678,101.544,493.773,102.006,493.873Zm-34.29,15.87H67.7c-.26-.2-.573-.435-.972-.736C66.731,509.007,67.143,509.316,67.716,509.743ZM56.1,524.057l-.173-.138L58,520.611Z" transform="translate(-41.594 -482.234)" fill="#dd1c63"/>
    </g>
  </g>
</svg>
